PathFileType	4	(X/Y/Z)	s11c0302.trc
DataRate	CameraRate	NumFrames	NumMarkers	Units	OrigDataRate	OrigDataStartFrame	OrigNumFrames
200	200	4	48	mm	200	500	2000
Frame#	Time	racr			lacr			c7			jug			rlel			rdr			llel			ldr			s2			lic			ric			lasi			rasi			rpsi			lpsi			rgt			lgt			rth1			rth2			rth3			rth4			rlfc			rmfc			rsh1			rsh2			rsh3			rsh4			rlmal			rcal			rtoe			rmt5			lth1			lth2			lth4			lth3			llfc			lmfc			llmal			lcal			lmt5			lsh1			lsh2			lsh3			lsh4			ltoe			SBIKE			LBIKE			RBIKE			
		X1	Y1	Z1	X2	Y2	Z2	X3	Y3	Z3	X4	Y4	Z4	X5	Y5	Z5	X6	Y6	Z6	X7	Y7	Z7	X8	Y8	Z8	X9	Y9	Z9	X10	Y10	Z10	X11	Y11	Z11	X12	Y12	Z12	X13	Y13	Z13	X14	Y14	Z14	X15	Y15	Z15	X16	Y16	Z16	X17	Y17	Z17	X18	Y18	Z18	X19	Y19	Z19	X20	Y20	Z20	X21	Y21	Z21	X22	Y22	Z22	X23	Y23	Z23	X24	Y24	Z24	X25	Y25	Z25	X26	Y26	Z26	X27	Y27	Z27	X28	Y28	Z28	X29	Y29	Z29	X30	Y30	Z30	X31	Y31	Z31	X32	Y32	Z32	X33	Y33	Z33	X34	Y34	Z34	X35	Y35	Z35	X36	Y36	Z36	X37	Y37	Z37	X38	Y38	Z38	X39	Y39	Z39	X40	Y40	Z40	X41	Y41	Z41	X42	Y42	Z42	X43	Y43	Z43	X44	Y44	Z44	X45	Y45	Z45	X46	Y46	Z46	X47	Y47	Z47	X48	Y48	Z48	
500	2.5000	514.871878	1412.170622	-112.657110	510.342354	1450.190354	-423.209524	423.979236	1542.494688	-262.754567	458.645645	1367.025888	-273.292941	578.023746	1149.983584	-11.257771	779.920192	933.195357	-69.688854	509.908101	1138.384079	-512.526875	771.115175	933.429207	-467.650355	-95.004183	1240.484720	-270.596675	121.205537	1251.479196	-466.118495	118.243598	1266.798191	-69.251493	157.463466	1174.259543	-432.014190	144.812959	1197.110182	-99.724518	-61.023843	1320.163233	-216.524815	-57.203928	1309.372798	-312.432131	70.184754	1132.481726	-38.343613	46.340492	1110.732099	-458.598389	185.954566	1047.203651	-26.938359	265.406262	1007.701569	-31.746304	316.657311	936.727413	-38.794272	287.124902	1035.031761	-43.723861	396.125872	856.366452	-49.889436	405.034944	838.513149	-180.598775	293.321303	733.435282	-48.427720	247.139321	662.496248	-73.993286	171.418783	620.123856	-80.368288	268.350862	648.565676	-104.208139	65.811428	535.206431	-99.595099	4.933483	558.126313	-149.966835	212.319899	359.930852	-146.275575	139.922189	379.942170	-78.522911	145.354948	996.154073	-468.396354	210.007554	940.927725	-458.319128	240.663412	961.056570	-452.470031	239.106323	856.755263	-447.412990	314.701163	737.611037	-417.417883	305.381198	730.273777	-290.589408	236.443253	309.810066	-413.688711	189.545139	252.602600	-383.304463	395.818392	248.881672	-456.710723	294.816198	611.415397	-442.205235	304.773898	527.549131	-428.110242	273.575986	444.823790	-428.965580	332.177759	526.808531	-401.601782	486.970629	290.593481	-390.675516	-214.671533	951.784750	-257.013279	-18.052429	80.666688	-460.931212	-18.069726	80.810031	-62.131904	
501	2.5050	517.244016	1412.456575	-112.248918	513.499243	1451.251752	-423.862222	427.108046	1542.252308	-263.294705	462.485410	1366.945207	-274.007942	579.141241	1149.534070	-10.326302	780.179047	932.894435	-69.596049	510.781250	1138.708637	-512.957650	771.270521	933.328847	-467.557480	-90.291721	1236.952852	-272.586259	126.697544	1248.345431	-467.285060	122.080477	1265.834167	-70.205768	163.469016	1171.658103	-432.535446	149.238455	1196.367867	-100.508024	-57.213007	1317.097399	-218.555139	-52.649165	1305.910823	-314.501274	74.974471	1131.261862	-38.869110	52.221994	1106.419992	-459.307986	188.884834	1046.580202	-28.088336	271.227849	1008.052799	-31.965505	322.910950	937.427574	-38.526404	292.702244	1035.593581	-43.905346	403.076533	858.014401	-49.351760	412.101837	839.769271	-180.007169	299.641177	736.077390	-47.917924	252.664594	665.805752	-73.668835	176.506422	624.188281	-79.952059	273.697928	651.497335	-103.893645	70.183258	540.209584	-99.323877	9.461502	563.839748	-149.903074	214.808967	363.262920	-146.281948	142.581622	383.971356	-78.650265	150.178589	991.602971	-468.579690	214.375275	935.986934	-458.138593	245.208382	955.805411	-452.437252	242.817208	851.566527	-446.667594	317.072816	733.316931	-416.792776	307.534284	726.069767	-289.994641	234.927580	306.281114	-413.710712	187.242476	249.771671	-383.987852	393.769758	244.162476	-456.569036	296.010915	607.329687	-441.802434	305.113094	523.421137	-427.736406	273.185479	440.943350	-428.772054	332.470681	522.373245	-401.190079	485.255234	285.046532	-390.499755	-214.669983	951.801581	-257.082528	-18.044872	80.643665	-460.916260	-18.067020	80.812022	-62.129806	
502	2.5100	519.608846	1412.703341	-111.873789	516.719041	1452.296393	-424.556236	430.397516	1542.118163	-263.878556	466.514553	1366.983808	-274.587452	580.493921	1149.194923	-9.716801	780.627590	932.534330	-69.579105	511.717285	1138.962167	-513.449146	771.472420	933.281520	-467.450033	-85.644342	1233.449876	-274.521104	132.459512	1245.438928	-468.102006	126.368102	1264.295015	-71.011741	169.400026	1168.999304	-432.987807	153.811840	1195.620403	-101.297512	-53.324378	1313.912441	-220.581199	-48.014772	1302.363894	-316.535997	79.917200	1129.772754	-39.382924	58.115363	1102.504182	-460.654178	196.774756	1046.580219	-27.660205	277.026163	1008.256198	-32.267068	329.295696	938.043425	-38.492067	298.266514	1035.917229	-44.253307	409.925546	859.424795	-48.750725	418.726731	841.032032	-179.484614	305.827949	738.461690	-47.504579	258.069620	668.717159	-73.335125	181.542220	627.979381	-79.636301	278.941725	654.026695	-103.665018	74.639874	545.043760	-99.125887	14.229554	569.348788	-149.689522	217.376090	366.466698	-146.400850	145.338116	387.961272	-78.824991	155.007037	987.161808	-468.873261	218.807765	931.167245	-458.004733	249.746916	950.802256	-452.448506	246.636249	846.752197	-445.983050	319.385750	729.118300	-416.391520	310.099042	721.950532	-289.579969	233.454439	302.979409	-413.606957	185.233495	246.893783	-384.082633	391.744304	239.578528	-456.441129	297.301073	603.488878	-441.473399	305.572845	519.448010	-427.389578	272.857494	437.353757	-428.534143	332.841384	518.258649	-400.823957	483.530706	279.505263	-390.274093	-214.637146	951.811426	-257.142698	-18.026859	80.637831	-460.929999	-18.057316	80.811592	-62.136771	
503	2.5150	521.925292	1412.931844	-111.388574	519.972257	1453.181207	-425.390506	433.713983	1542.030509	-264.369446	470.535634	1367.221345	-275.274827	581.939007	1148.835426	-9.423330	781.106200	932.120134	-69.761320	512.701200	1139.087061	-514.063810	771.723659	933.216311	-467.276886	-80.740025	1229.618635	-276.363241	138.056996	1242.480436	-468.980882	130.193273	1263.274681	-72.008241	175.356389	1166.413383	-433.439663	158.382749	1194.805496	-101.972638	-49.372288	1310.680259	-222.439683	-43.331724	1298.743015	-318.368553	85.005484	1128.051733	-39.989282	63.766388	1098.152173	-461.783731	202.545711	1046.138917	-27.990724	283.059383	1008.227567	-32.675823	335.801541	938.360376	-38.346654	304.054826	1035.967430	-44.636114	416.760253	860.662085	-48.135390	425.070545	842.014355	-178.940835	311.963441	740.526045	-47.090700	263.463386	671.472837	-73.122791	186.490640	631.463297	-79.384183	284.245680	656.697557	-103.299983	79.085868	549.686502	-98.902981	19.015828	574.807238	-149.473684	220.043282	369.753005	-146.517322	148.229742	391.969128	-78.911163	159.813167	983.159864	-469.310648	223.217325	926.785913	-457.951586	254.248268	946.226584	-452.461616	250.578937	841.911072	-444.858583	321.796801	724.920773	-415.956261	312.750517	717.979941	-289.191455	231.903674	299.943296	-413.503746	183.000661	244.329507	-384.161669	389.507005	235.034714	-456.365340	298.634262	599.825588	-441.332345	306.070887	515.675357	-427.114979	272.566423	433.870339	-428.368142	333.307824	514.160767	-400.525872	481.638183	274.027464	-389.984928	-214.600975	951.890027	-257.227609	-18.029888	80.662076	-460.928284	-18.030310	80.821718	-62.156549	
